<svg xmlns="http://www.w3.org/2000/svg" xmlns:xlink="http://www.w3.org/1999/xlink" width="500" zoomAndPan="magnify" viewBox="0 0 375 397.499983" height="530" preserveAspectRatio="xMidYMid meet" version="1.0"><defs><g/><clipPath id="2edc6c9f4b"><path d="M 0.234375 0 L 374.761719 0 L 374.761719 397 L 0.234375 397 Z M 0.234375 0 " clip-rule="nonzero"/></clipPath><clipPath id="0aec9eb39c"><path d="M 17.464844 0 L 357.535156 0 C 367.050781 0 374.765625 7.714844 374.765625 17.226562 L 374.765625 379.773438 C 374.765625 389.289062 367.050781 397 357.535156 397 L 17.464844 397 C 7.949219 397 0.234375 389.289062 0.234375 379.773438 L 0.234375 17.226562 C 0.234375 7.714844 7.949219 0 17.464844 0 Z M 17.464844 0 " clip-rule="nonzero"/></clipPath><clipPath id="025d93aa4d"><path d="M 45.992188 37.453125 L 329 37.453125 L 329 252.433594 L 45.992188 252.433594 Z M 45.992188 37.453125 " clip-rule="nonzero"/></clipPath></defs><g clip-path="url(#2edc6c9f4b)"><g clip-path="url(#0aec9eb39c)"><path fill="#000000" d="M 0.234375 0 L 374.765625 0 L 374.765625 396.472656 L 0.234375 396.472656 Z M 0.234375 0 " fill-opacity="1" fill-rule="nonzero"/></g></g><g clip-path="url(#025d93aa4d)"><path fill="#ffffff" d="M 328.996094 232.707031 L 328.996094 61.910156 C 325.582031 61.910156 322.25 61.960938 318.957031 62.035156 L 318.957031 50.222656 L 315.660156 50.222656 C 311.722656 50.222656 307.902344 50.308594 304.140625 50.429688 L 304.140625 37.835938 L 300.84375 37.835938 C 226.523438 37.835938 188.003906 67.777344 187.613281 68.082031 L 187.492188 68.175781 L 187.367188 68.082031 C 186.988281 67.777344 148.457031 37.835938 74.144531 37.835938 L 70.851562 37.835938 L 70.851562 50.433594 C 67.089844 50.308594 63.265625 50.222656 59.328125 50.222656 L 56.027344 50.222656 L 56.027344 62.039062 C 52.738281 61.964844 49.402344 61.910156 45.992188 61.910156 L 45.992188 232.707031 C 139.382812 232.707031 187.496094 252.0625 187.496094 252.0625 C 187.496094 252.0625 235.605469 232.710938 328.996094 232.707031 Z M 62.621094 56.480469 C 65.417969 56.507812 68.148438 56.574219 70.851562 56.664062 L 70.851562 209.074219 C 70.839844 209.503906 70.910156 209.890625 71.039062 210.128906 C 71.609375 211.34375 71.945312 211.328125 72.101562 211.523438 C 72.621094 211.882812 72.550781 211.789062 72.628906 211.847656 C 72.664062 211.863281 72.671875 211.863281 72.671875 211.863281 L 77.445312 214.125 L 77.445312 212.214844 C 112.015625 212.640625 138.234375 219.695312 155.941406 226.714844 C 159.230469 228.019531 162.210938 229.320312 164.90625 230.582031 C 144.664062 225.183594 110.449219 218.636719 62.621094 218.34375 Z M 155.941406 58.601562 C 165.0625 62.21875 171.925781 65.832031 176.472656 68.519531 C 178.746094 69.867188 180.449219 70.976562 181.570312 71.746094 C 181.714844 71.84375 181.847656 71.9375 181.976562 72.027344 L 181.976562 232.550781 C 169.230469 224.664062 134.023438 206.652344 77.445312 205.972656 L 77.445312 44.101562 C 112.015625 44.527344 138.234375 51.582031 155.941406 58.601562 Z M 297.546875 44.101562 L 297.546875 205.972656 C 240.972656 206.652344 205.761719 224.65625 193.015625 232.550781 L 193.015625 72.027344 C 199.800781 67.292969 235.085938 44.871094 297.546875 44.101562 Z M 312.367188 218.34375 C 264.523438 218.636719 230.304688 225.183594 210.0625 230.585938 C 227.625 222.386719 257.757812 212.316406 300.066406 212.195312 L 304.140625 214.121094 L 304.140625 56.667969 C 306.839844 56.578125 309.570312 56.507812 312.367188 56.480469 Z M 312.367188 218.34375 " fill-opacity="1" fill-rule="nonzero"/></g><g fill="#ffffff" fill-opacity="1"><g transform="translate(131.007667, 306.81299)"><g><path d="M 23.265625 0 L 18.234375 0 L 16.40625 -5.59375 L 7.109375 -5.59375 L 5.296875 0 L 0.359375 0 L 8.734375 -24.25 L 14.890625 -24.25 Z M 11.53125 -19.1875 L 8.40625 -9.625 L 15.078125 -9.625 L 11.9375 -19.1875 Z M 11.53125 -19.1875 "/></g></g><g transform="translate(154.638261, 306.81299)"><g><path d="M 8.5625 0.34375 C 7.3125 0.34375 6.164062 0.195312 5.125 -0.09375 C 4.082031 -0.382812 3.191406 -0.785156 2.453125 -1.296875 C 1.722656 -1.816406 1.179688 -2.40625 0.828125 -3.0625 L 3.390625 -5.828125 L 3.734375 -5.828125 C 4.335938 -5.003906 5.050781 -4.382812 5.875 -3.96875 C 6.707031 -3.5625 7.613281 -3.359375 8.59375 -3.359375 C 9.488281 -3.359375 10.160156 -3.519531 10.609375 -3.84375 C 11.066406 -4.164062 11.296875 -4.625 11.296875 -5.21875 C 11.296875 -5.6875 11.128906 -6.078125 10.796875 -6.390625 C 10.472656 -6.703125 9.945312 -6.945312 9.21875 -7.125 L 6.796875 -7.71875 C 4.984375 -8.144531 3.660156 -8.800781 2.828125 -9.6875 C 1.992188 -10.582031 1.578125 -11.71875 1.578125 -13.09375 C 1.578125 -14.226562 1.863281 -15.210938 2.4375 -16.046875 C 3.019531 -16.890625 3.835938 -17.53125 4.890625 -17.96875 C 5.953125 -18.414062 7.1875 -18.640625 8.59375 -18.640625 C 10.238281 -18.640625 11.601562 -18.398438 12.6875 -17.921875 C 13.769531 -17.453125 14.613281 -16.816406 15.21875 -16.015625 L 12.765625 -13.375 L 12.4375 -13.375 C 11.925781 -13.945312 11.351562 -14.363281 10.71875 -14.625 C 10.082031 -14.894531 9.375 -15.03125 8.59375 -15.03125 C 6.78125 -15.03125 5.875 -14.460938 5.875 -13.328125 C 5.875 -12.859375 6.039062 -12.472656 6.375 -12.171875 C 6.71875 -11.867188 7.3125 -11.625 8.15625 -11.4375 L 10.421875 -10.953125 C 12.273438 -10.546875 13.628906 -9.90625 14.484375 -9.03125 C 15.347656 -8.15625 15.78125 -6.972656 15.78125 -5.484375 C 15.78125 -4.328125 15.488281 -3.304688 14.90625 -2.421875 C 14.332031 -1.535156 13.503906 -0.851562 12.421875 -0.375 C 11.335938 0.101562 10.050781 0.34375 8.5625 0.34375 Z M 8.5625 0.34375 "/></g></g><g transform="translate(171.503043, 306.81299)"><g><path d="M 5.15625 0 L 0.3125 0 L 5.546875 -9.484375 L 0.59375 -18.296875 L 5.5 -18.296875 L 8.671875 -12.28125 L 9.0625 -12.28125 L 12.234375 -18.296875 L 17 -18.296875 L 12.203125 -9.484375 L 17.28125 0 L 12.390625 0 L 8.9375 -6.6875 L 8.5625 -6.6875 Z M 5.15625 0 "/></g></g><g transform="translate(189.097472, 306.81299)"><g><path d="M 10.625 0.34375 C 8.832031 0.34375 7.257812 -0.0195312 5.90625 -0.75 C 4.550781 -1.488281 3.5 -2.566406 2.75 -3.984375 C 2.007812 -5.410156 1.640625 -7.128906 1.640625 -9.140625 C 1.640625 -11.148438 2.007812 -12.867188 2.75 -14.296875 C 3.5 -15.722656 4.550781 -16.800781 5.90625 -17.53125 C 7.257812 -18.269531 8.832031 -18.640625 10.625 -18.640625 C 12.414062 -18.640625 13.988281 -18.269531 15.34375 -17.53125 C 16.695312 -16.800781 17.75 -15.722656 18.5 -14.296875 C 19.257812 -12.867188 19.640625 -11.148438 19.640625 -9.140625 C 19.640625 -7.128906 19.257812 -5.410156 18.5 -3.984375 C 17.75 -2.566406 16.695312 -1.488281 15.34375 -0.75 C 13.988281 -0.0195312 12.414062 0.34375 10.625 0.34375 Z M 10.625 -3.546875 C 13.46875 -3.546875 14.890625 -5.410156 14.890625 -9.140625 C 14.890625 -11.078125 14.523438 -12.492188 13.796875 -13.390625 C 13.066406 -14.296875 12.007812 -14.75 10.625 -14.75 C 7.789062 -14.75 6.375 -12.878906 6.375 -9.140625 C 6.375 -5.410156 7.789062 -3.546875 10.625 -3.546875 Z M 10.625 -3.546875 "/></g></g><g transform="translate(210.356715, 306.81299)"><g><path d="M 2.640625 0 L 2.640625 -18.296875 L 7.09375 -18.296875 L 7.09375 -15.578125 L 7.453125 -15.515625 C 7.890625 -16.523438 8.46875 -17.265625 9.1875 -17.734375 C 9.90625 -18.210938 10.78125 -18.453125 11.8125 -18.453125 C 12.851562 -18.453125 13.644531 -18.28125 14.1875 -17.9375 L 13.40625 -13.96875 L 13.046875 -13.90625 C 12.753906 -14.019531 12.46875 -14.101562 12.1875 -14.15625 C 11.914062 -14.21875 11.578125 -14.25 11.171875 -14.25 C 9.890625 -14.25 8.910156 -13.796875 8.234375 -12.890625 C 7.566406 -11.992188 7.234375 -10.550781 7.234375 -8.5625 L 7.234375 0 Z M 2.640625 0 "/></g></g><g transform="translate(224.7009, 306.81299)"><g><path d="M 7.125 0.34375 C 5.957031 0.34375 4.941406 0.128906 4.078125 -0.296875 C 3.210938 -0.734375 2.546875 -1.367188 2.078125 -2.203125 C 1.617188 -3.035156 1.390625 -4.035156 1.390625 -5.203125 C 1.390625 -6.285156 1.617188 -7.195312 2.078125 -7.9375 C 2.546875 -8.675781 3.265625 -9.28125 4.234375 -9.75 C 5.210938 -10.21875 6.488281 -10.578125 8.0625 -10.828125 C 9.15625 -11.003906 9.984375 -11.195312 10.546875 -11.40625 C 11.117188 -11.613281 11.503906 -11.847656 11.703125 -12.109375 C 11.910156 -12.378906 12.015625 -12.722656 12.015625 -13.140625 C 12.015625 -13.722656 11.804688 -14.164062 11.390625 -14.46875 C 10.984375 -14.78125 10.304688 -14.9375 9.359375 -14.9375 C 8.335938 -14.9375 7.367188 -14.707031 6.453125 -14.25 C 5.535156 -13.800781 4.738281 -13.207031 4.0625 -12.46875 L 3.734375 -12.46875 L 1.8125 -15.375 C 2.738281 -16.40625 3.867188 -17.207031 5.203125 -17.78125 C 6.546875 -18.351562 8.007812 -18.640625 9.59375 -18.640625 C 12.007812 -18.640625 13.757812 -18.125 14.84375 -17.09375 C 15.925781 -16.070312 16.46875 -14.613281 16.46875 -12.71875 L 16.46875 -4.78125 C 16.46875 -3.957031 16.828125 -3.546875 17.546875 -3.546875 C 17.828125 -3.546875 18.097656 -3.597656 18.359375 -3.703125 L 18.59375 -3.625 L 18.921875 -0.4375 C 18.671875 -0.269531 18.316406 -0.132812 17.859375 -0.03125 C 17.410156 0.0703125 16.914062 0.125 16.375 0.125 C 15.28125 0.125 14.425781 -0.0820312 13.8125 -0.5 C 13.195312 -0.914062 12.753906 -1.570312 12.484375 -2.46875 L 12.140625 -2.5 C 11.242188 -0.601562 9.570312 0.34375 7.125 0.34375 Z M 8.59375 -3.078125 C 9.65625 -3.078125 10.503906 -3.429688 11.140625 -4.140625 C 11.773438 -4.859375 12.09375 -5.851562 12.09375 -7.125 L 12.09375 -8.984375 L 11.78125 -9.0625 C 11.5 -8.832031 11.132812 -8.644531 10.6875 -8.5 C 10.238281 -8.351562 9.59375 -8.207031 8.75 -8.0625 C 7.757812 -7.894531 7.046875 -7.609375 6.609375 -7.203125 C 6.171875 -6.796875 5.953125 -6.222656 5.953125 -5.484375 C 5.953125 -4.703125 6.179688 -4.101562 6.640625 -3.6875 C 7.109375 -3.28125 7.757812 -3.078125 8.59375 -3.078125 Z M 8.59375 -3.078125 "/></g></g></g><g fill="#ffffff" fill-opacity="1"><g transform="translate(51.837334, 350.58569)"><g><path d="M 8.828125 -11.828125 L 8.828125 -4.453125 L 21.671875 -4.453125 L 21.671875 0 L 3.5 0 L 3.5 -26.921875 L 21.375 -26.921875 L 21.375 -22.46875 L 8.828125 -22.46875 L 8.828125 -16.171875 L 19.796875 -16.171875 L 19.796875 -11.828125 Z M 8.828125 -11.828125 "/></g></g></g><g fill="#ffffff" fill-opacity="1"><g transform="translate(74.989033, 350.58569)"><g><path d="M 10.03125 0.390625 C 8.425781 0.390625 7.003906 0 5.765625 -0.78125 C 4.535156 -1.5625 3.570312 -2.738281 2.875 -4.3125 C 2.175781 -5.894531 1.828125 -7.835938 1.828125 -10.140625 C 1.828125 -12.460938 2.1875 -14.410156 2.90625 -15.984375 C 3.625 -17.566406 4.617188 -18.75 5.890625 -19.53125 C 7.160156 -20.3125 8.628906 -20.703125 10.296875 -20.703125 C 11.554688 -20.703125 12.648438 -20.484375 13.578125 -20.046875 C 14.503906 -19.609375 15.289062 -18.929688 15.9375 -18.015625 L 16.3125 -18.109375 L 16.3125 -28.46875 L 21.421875 -28.46875 L 21.421875 0 L 16.3125 0 L 16.3125 -2.640625 L 15.9375 -2.703125 C 15.363281 -1.742188 14.585938 -0.988281 13.609375 -0.4375 C 12.628906 0.113281 11.4375 0.390625 10.03125 0.390625 Z M 11.6875 -3.9375 C 13.125 -3.9375 14.257812 -4.445312 15.09375 -5.46875 C 15.9375 -6.5 16.359375 -8.054688 16.359375 -10.140625 C 16.359375 -12.234375 15.9375 -13.796875 15.09375 -14.828125 C 14.257812 -15.859375 13.125 -16.375 11.6875 -16.375 C 10.195312 -16.375 9.054688 -15.875 8.265625 -14.875 C 7.472656 -13.875 7.078125 -12.296875 7.078125 -10.140625 C 7.078125 -8.003906 7.472656 -6.4375 8.265625 -5.4375 C 9.054688 -4.4375 10.195312 -3.9375 11.6875 -3.9375 Z M 11.6875 -3.9375 "/></g></g></g><g fill="#ffffff" fill-opacity="1"><g transform="translate(99.337917, 350.58569)"><g><path d="M 9.296875 0.390625 C 7.015625 0.390625 5.328125 -0.234375 4.234375 -1.484375 C 3.148438 -2.734375 2.609375 -4.519531 2.609375 -6.84375 L 2.609375 -20.3125 L 7.71875 -20.3125 L 7.71875 -7.5 C 7.71875 -6.257812 7.984375 -5.351562 8.515625 -4.78125 C 9.046875 -4.207031 9.875 -3.921875 11 -3.921875 C 12.40625 -3.921875 13.5 -4.382812 14.28125 -5.3125 C 15.070312 -6.238281 15.46875 -7.695312 15.46875 -9.6875 L 15.46875 -20.3125 L 20.578125 -20.3125 L 20.578125 0 L 15.671875 0 L 15.671875 -2.984375 L 15.28125 -3.078125 C 14.632812 -1.910156 13.84375 -1.039062 12.90625 -0.46875 C 11.96875 0.101562 10.765625 0.390625 9.296875 0.390625 Z M 9.296875 0.390625 "/></g></g></g><g fill="#ffffff" fill-opacity="1"><g transform="translate(122.839562, 350.58569)"><g><path d="M 11.84375 0.390625 C 9.875 0.390625 8.132812 -0.015625 6.625 -0.828125 C 5.113281 -1.648438 3.9375 -2.851562 3.09375 -4.4375 C 2.25 -6.019531 1.828125 -7.921875 1.828125 -10.140625 C 1.828125 -12.378906 2.25 -14.289062 3.09375 -15.875 C 3.9375 -17.457031 5.109375 -18.65625 6.609375 -19.46875 C 8.109375 -20.289062 9.820312 -20.703125 11.75 -20.703125 C 16.03125 -20.703125 18.773438 -19.148438 19.984375 -16.046875 L 16.484375 -13.53125 L 16.09375 -13.53125 C 15.675781 -14.488281 15.132812 -15.203125 14.46875 -15.671875 C 13.800781 -16.140625 12.894531 -16.375 11.75 -16.375 C 10.28125 -16.375 9.132812 -15.863281 8.3125 -14.84375 C 7.488281 -13.820312 7.078125 -12.253906 7.078125 -10.140625 C 7.078125 -8.054688 7.492188 -6.5 8.328125 -5.46875 C 9.160156 -4.445312 10.332031 -3.9375 11.84375 -3.9375 C 12.945312 -3.9375 13.878906 -4.234375 14.640625 -4.828125 C 15.410156 -5.429688 15.960938 -6.289062 16.296875 -7.40625 L 16.6875 -7.4375 L 20.3125 -5.453125 C 19.800781 -3.734375 18.847656 -2.328125 17.453125 -1.234375 C 16.054688 -0.148438 14.1875 0.390625 11.84375 0.390625 Z M 11.84375 0.390625 "/></g></g></g><g fill="#ffffff" fill-opacity="1"><g transform="translate(143.781075, 350.58569)"><g><path d="M 7.921875 0.390625 C 6.617188 0.390625 5.488281 0.148438 4.53125 -0.328125 C 3.570312 -0.804688 2.832031 -1.507812 2.3125 -2.4375 C 1.800781 -3.363281 1.546875 -4.476562 1.546875 -5.78125 C 1.546875 -6.988281 1.800781 -8 2.3125 -8.8125 C 2.832031 -9.625 3.628906 -10.289062 4.703125 -10.8125 C 5.785156 -11.34375 7.203125 -11.75 8.953125 -12.03125 C 10.171875 -12.226562 11.09375 -12.441406 11.71875 -12.671875 C 12.351562 -12.898438 12.78125 -13.160156 13 -13.453125 C 13.21875 -13.753906 13.328125 -14.132812 13.328125 -14.59375 C 13.328125 -15.238281 13.097656 -15.734375 12.640625 -16.078125 C 12.191406 -16.421875 11.441406 -16.59375 10.390625 -16.59375 C 9.253906 -16.59375 8.175781 -16.335938 7.15625 -15.828125 C 6.144531 -15.328125 5.265625 -14.664062 4.515625 -13.84375 L 4.140625 -13.84375 L 2 -17.078125 C 3.03125 -18.210938 4.289062 -19.097656 5.78125 -19.734375 C 7.269531 -20.378906 8.890625 -20.703125 10.640625 -20.703125 C 13.328125 -20.703125 15.269531 -20.128906 16.46875 -18.984375 C 17.675781 -17.847656 18.28125 -16.226562 18.28125 -14.125 L 18.28125 -5.296875 C 18.28125 -4.390625 18.679688 -3.9375 19.484375 -3.9375 C 19.796875 -3.9375 20.097656 -3.992188 20.390625 -4.109375 L 20.640625 -4.03125 L 21.015625 -0.484375 C 20.734375 -0.296875 20.335938 -0.144531 19.828125 -0.03125 C 19.328125 0.0820312 18.773438 0.140625 18.171875 0.140625 C 16.960938 0.140625 16.015625 -0.0859375 15.328125 -0.546875 C 14.648438 -1.015625 14.164062 -1.75 13.875 -2.75 L 13.484375 -2.78125 C 12.484375 -0.664062 10.628906 0.390625 7.921875 0.390625 Z M 9.546875 -3.421875 C 10.722656 -3.421875 11.660156 -3.816406 12.359375 -4.609375 C 13.066406 -5.398438 13.421875 -6.503906 13.421875 -7.921875 L 13.421875 -9.984375 L 13.078125 -10.0625 C 12.765625 -9.8125 12.359375 -9.601562 11.859375 -9.4375 C 11.367188 -9.269531 10.65625 -9.109375 9.71875 -8.953125 C 8.613281 -8.765625 7.816406 -8.445312 7.328125 -8 C 6.847656 -7.550781 6.609375 -6.914062 6.609375 -6.09375 C 6.609375 -5.21875 6.863281 -4.550781 7.375 -4.09375 C 7.894531 -3.644531 8.617188 -3.421875 9.546875 -3.421875 Z M 9.546875 -3.421875 "/></g></g></g><g fill="#ffffff" fill-opacity="1"><g transform="translate(165.201461, 350.58569)"><g><path d="M 14.015625 -4.84375 L 15.34375 -1.0625 C 14.789062 -0.613281 14.097656 -0.257812 13.265625 0 C 12.429688 0.257812 11.484375 0.390625 10.421875 0.390625 C 8.222656 0.390625 6.550781 -0.207031 5.40625 -1.40625 C 4.269531 -2.601562 3.703125 -4.34375 3.703125 -6.625 L 3.703125 -16.28125 L 0.609375 -16.28125 L 0.609375 -20.328125 L 3.703125 -20.328125 L 3.703125 -24.296875 L 8.796875 -25.125 L 8.796875 -20.328125 L 14.5625 -20.328125 L 14.5625 -16.28125 L 8.796875 -16.28125 L 8.796875 -7 C 8.796875 -5.988281 9.003906 -5.253906 9.421875 -4.796875 C 9.847656 -4.335938 10.457031 -4.109375 11.25 -4.109375 C 12.15625 -4.109375 12.945312 -4.351562 13.625 -4.84375 Z M 14.015625 -4.84375 "/></g></g></g><g fill="#ffffff" fill-opacity="1"><g transform="translate(180.985873, 350.58569)"><g><path d="M 5.46875 -22.75 C 4.550781 -22.75 3.800781 -23.023438 3.21875 -23.578125 C 2.644531 -24.140625 2.359375 -24.863281 2.359375 -25.75 C 2.359375 -26.625 2.644531 -27.335938 3.21875 -27.890625 C 3.800781 -28.453125 4.550781 -28.734375 5.46875 -28.734375 C 6.082031 -28.734375 6.628906 -28.601562 7.109375 -28.34375 C 7.585938 -28.082031 7.957031 -27.726562 8.21875 -27.28125 C 8.488281 -26.832031 8.625 -26.320312 8.625 -25.75 C 8.625 -25.164062 8.488281 -24.644531 8.21875 -24.1875 C 7.957031 -23.738281 7.585938 -23.382812 7.109375 -23.125 C 6.628906 -22.875 6.082031 -22.75 5.46875 -22.75 Z M 2.921875 0 L 2.921875 -20.3125 L 8.03125 -20.3125 L 8.03125 0 Z M 2.921875 0 "/></g></g></g><g fill="#ffffff" fill-opacity="1"><g transform="translate(191.926295, 350.58569)"><g><path d="M 11.8125 0.390625 C 9.820312 0.390625 8.070312 -0.015625 6.5625 -0.828125 C 5.0625 -1.648438 3.894531 -2.847656 3.0625 -4.421875 C 2.238281 -6.003906 1.828125 -7.910156 1.828125 -10.140625 C 1.828125 -12.378906 2.238281 -14.289062 3.0625 -15.875 C 3.894531 -17.457031 5.0625 -18.65625 6.5625 -19.46875 C 8.070312 -20.289062 9.820312 -20.703125 11.8125 -20.703125 C 13.800781 -20.703125 15.546875 -20.289062 17.046875 -19.46875 C 18.546875 -18.65625 19.710938 -17.457031 20.546875 -15.875 C 21.390625 -14.289062 21.8125 -12.378906 21.8125 -10.140625 C 21.8125 -7.910156 21.390625 -6.003906 20.546875 -4.421875 C 19.710938 -2.847656 18.546875 -1.648438 17.046875 -0.828125 C 15.546875 -0.015625 13.800781 0.390625 11.8125 0.390625 Z M 11.8125 -3.9375 C 14.957031 -3.9375 16.53125 -6.003906 16.53125 -10.140625 C 16.53125 -12.296875 16.125 -13.875 15.3125 -14.875 C 14.507812 -15.875 13.34375 -16.375 11.8125 -16.375 C 8.65625 -16.375 7.078125 -14.296875 7.078125 -10.140625 C 7.078125 -6.003906 8.65625 -3.9375 11.8125 -3.9375 Z M 11.8125 -3.9375 "/></g></g></g><g fill="#ffffff" fill-opacity="1"><g transform="translate(215.538449, 350.58569)"><g><path d="M 2.921875 0 L 2.921875 -20.3125 L 7.828125 -20.3125 L 7.828125 -17.328125 L 8.21875 -17.234375 C 9.476562 -19.546875 11.523438 -20.703125 14.359375 -20.703125 C 16.710938 -20.703125 18.4375 -20.0625 19.53125 -18.78125 C 20.632812 -17.507812 21.1875 -15.648438 21.1875 -13.203125 L 21.1875 0 L 16.078125 0 L 16.078125 -12.578125 C 16.078125 -13.929688 15.804688 -14.90625 15.265625 -15.5 C 14.722656 -16.09375 13.859375 -16.390625 12.671875 -16.390625 C 11.210938 -16.390625 10.070312 -15.914062 9.25 -14.96875 C 8.4375 -14.03125 8.03125 -12.546875 8.03125 -10.515625 L 8.03125 0 Z M 2.921875 0 "/></g></g></g><g fill="#ffffff" fill-opacity="1"><g transform="translate(239.334785, 350.58569)"><g/></g></g><g fill="#ffffff" fill-opacity="1"><g transform="translate(248.230784, 350.58569)"><g><path d="M 25.84375 0 L 20.234375 0 L 18.21875 -6.203125 L 7.90625 -6.203125 L 5.875 0 L 0.40625 0 L 9.703125 -26.921875 L 16.53125 -26.921875 Z M 12.796875 -21.3125 L 9.34375 -10.6875 L 16.734375 -10.6875 L 13.265625 -21.3125 Z M 12.796875 -21.3125 "/></g></g></g><g fill="#ffffff" fill-opacity="1"><g transform="translate(274.476744, 350.58569)"><g><path d="M 2.921875 8.234375 L 2.921875 -20.3125 L 8.03125 -20.3125 L 8.03125 -17.65625 L 8.421875 -17.59375 C 9.015625 -18.625 9.816406 -19.398438 10.828125 -19.921875 C 11.835938 -20.441406 13.015625 -20.703125 14.359375 -20.703125 C 15.992188 -20.703125 17.421875 -20.3125 18.640625 -19.53125 C 19.867188 -18.757812 20.820312 -17.582031 21.5 -16 C 22.1875 -14.425781 22.53125 -12.472656 22.53125 -10.140625 C 22.53125 -7.828125 22.171875 -5.882812 21.453125 -4.3125 C 20.734375 -2.738281 19.734375 -1.5625 18.453125 -0.78125 C 17.171875 0 15.695312 0.390625 14.03125 0.390625 C 12.769531 0.390625 11.675781 0.175781 10.75 -0.25 C 9.832031 -0.675781 9.054688 -1.335938 8.421875 -2.234375 L 8.03125 -2.15625 L 8.03125 8.234375 Z M 12.609375 -3.9375 C 14.140625 -3.9375 15.296875 -4.429688 16.078125 -5.421875 C 16.859375 -6.421875 17.25 -7.992188 17.25 -10.140625 C 17.25 -12.296875 16.859375 -13.875 16.078125 -14.875 C 15.296875 -15.875 14.140625 -16.375 12.609375 -16.375 C 11.191406 -16.375 10.0625 -15.859375 9.21875 -14.828125 C 8.382812 -13.796875 7.96875 -12.234375 7.96875 -10.140625 C 7.96875 -8.066406 8.382812 -6.515625 9.21875 -5.484375 C 10.0625 -4.453125 11.191406 -3.9375 12.609375 -3.9375 Z M 12.609375 -3.9375 "/></g></g></g><g fill="#ffffff" fill-opacity="1"><g transform="translate(298.807209, 350.58569)"><g><path d="M 2.921875 8.234375 L 2.921875 -20.3125 L 8.03125 -20.3125 L 8.03125 -17.65625 L 8.421875 -17.59375 C 9.015625 -18.625 9.816406 -19.398438 10.828125 -19.921875 C 11.835938 -20.441406 13.015625 -20.703125 14.359375 -20.703125 C 15.992188 -20.703125 17.421875 -20.3125 18.640625 -19.53125 C 19.867188 -18.757812 20.820312 -17.582031 21.5 -16 C 22.1875 -14.425781 22.53125 -12.472656 22.53125 -10.140625 C 22.53125 -7.828125 22.171875 -5.882812 21.453125 -4.3125 C 20.734375 -2.738281 19.734375 -1.5625 18.453125 -0.78125 C 17.171875 0 15.695312 0.390625 14.03125 0.390625 C 12.769531 0.390625 11.675781 0.175781 10.75 -0.25 C 9.832031 -0.675781 9.054688 -1.335938 8.421875 -2.234375 L 8.03125 -2.15625 L 8.03125 8.234375 Z M 12.609375 -3.9375 C 14.140625 -3.9375 15.296875 -4.429688 16.078125 -5.421875 C 16.859375 -6.421875 17.25 -7.992188 17.25 -10.140625 C 17.25 -12.296875 16.859375 -13.875 16.078125 -14.875 C 15.296875 -15.875 14.140625 -16.375 12.609375 -16.375 C 11.191406 -16.375 10.0625 -15.859375 9.21875 -14.828125 C 8.382812 -13.796875 7.96875 -12.234375 7.96875 -10.140625 C 7.96875 -8.066406 8.382812 -6.515625 9.21875 -5.484375 C 10.0625 -4.453125 11.191406 -3.9375 12.609375 -3.9375 Z M 12.609375 -3.9375 "/></g></g></g></svg>